<svg class="diagram-root" style="background: #f5f6f6" xmlns="http://www.w3.org/2000/svg" xmlns:xlink="http://www.w3.org/1999/xlink"><style>.diagram-root { font-family: "Helvetica Neue", sans-serif; font-size: 12px; } .t { overflow: visible; } .t-bg { y: 40; fill: #fff;   } .th { fill: #005aa0;   } .tht { fill: #fff; font-size: 14px;  } .tf { fill: #323c46; overflow: visible; } .tf.pk { fill: #005aa0; font-weight: bold; } .tf.fk { font-weight: bold; } .ty { fill: #adb1b5; font-weight: normal; text-anchor: end; } .r { fill: transparent; stroke: #c3c3c3; stroke-width: 1; } .l { stroke: 1; } .i { fill: #c2c7ce; stroke: #c2c7ce; } .i.ix { fill: #afb3b6; stroke: #000; } .fa { fill: transparent; overflow: visible; } .fa .bg.hover { fill: #f7f7f7; } .c { cy: 12; r: 4; stroke: #d2d2dc; fill: #d2d2dc; } .hr { fill: transparent; stroke: #323c46; stroke-opacity: 0.035; stroke-width: 13; } .dc { stroke: #fa5a3c; fill: #fa5a3c; } .x { stroke: white; stroke-width: 1; } .hl .th { fill: #1b9bff; } .hl .tht {  } .fhl .bg { fill: #e7f4ff; } .fhls .bg {  } .r.hl { stroke: #1b9bff; } .dim { opacity: 0.25; }</style><g class="drawing-wrapper" transform="translate(-102.2857142857143, 9.999999999999993) scale(1,1)"><g class="rs"><path d="M 786.46 117.71000000000001 m -1, 0 a 1,1 0 1,0 2,0 a 1,1 0 1,0 -2,0 M 786.46 117.71000000000001 m -0.5, 0 a 0.5,0.5 0 1,0 1,0 a 0.5,0.5 0 1,0 -1,0  M786.46 117.71000000000001 L786.46 117.71000000000001 798.46 117.71000000000001 M 786.46 123.71000000000001 m -1, 0 a 1,1 0 1,0 2,0 a 1,1 0 1,0 -2,0 M 786.46 123.71000000000001 m -0.5, 0 a 0.5,0.5 0 1,0 1,0 a 0.5,0.5 0 1,0 -1,0  M786.46 123.71000000000001 L786.46 123.71000000000001 793.46 117.71000000000001 786.46 111.71000000000001 M 786.46 111.71000000000001 m -1, 0 a 1,1 0 1,0 2,0 a 1,1 0 1,0 -2,0 M 786.46 111.71000000000001 m -0.5, 0 a 0.5,0.5 0 1,0 1,0 a 0.5,0.5 0 1,0 -1,0  M798.46 117.71000000000001 C 1144.252 117.71000000000001, 1033.33 458.44, 983.33 458.44 M 971.33 458.44 m -1, 0 a 1,1 0 1,0 2,0 a 1,1 0 1,0 -2,0 M 971.33 458.44 m -0.5, 0 a 0.5,0.5 0 1,0 1,0 a 0.5,0.5 0 1,0 -1,0  M971.33 458.44 L971.33 458.44 983.33 458.44 M977.33 464.44 L977.33 464.44 977.33 452.44" id="h3496878531" class="r"></path><path d="M 275.02 77 m -1, 0 a 1,1 0 1,0 2,0 a 1,1 0 1,0 -2,0 M 275.02 77 m -0.5, 0 a 0.5,0.5 0 1,0 1,0 a 0.5,0.5 0 1,0 -1,0  M275.02 77 L275.02 77 287.02 77 M281.02 83 L281.02 83 281.02 71 M287.02 77 Q 358.7 77, 430.37 84.86 T 573.71 92.71000000000001 M 585.71 92.71000000000001 m -1, 0 a 1,1 0 1,0 2,0 a 1,1 0 1,0 -2,0 M 585.71 92.71000000000001 m -0.5, 0 a 0.5,0.5 0 1,0 1,0 a 0.5,0.5 0 1,0 -1,0  M585.71 92.71000000000001 L585.71 92.71000000000001 573.71 92.71000000000001 M579.71 98.71000000000001 L579.71 98.71000000000001 579.71 86.71000000000001" id="h1139284389" class="r"></path><path d="M 124.29 102 m -1, 0 a 1,1 0 1,0 2,0 a 1,1 0 1,0 -2,0 M 124.29 102 m -0.5, 0 a 0.5,0.5 0 1,0 1,0 a 0.5,0.5 0 1,0 -1,0  M124.29 102 L124.29 102 112.29 102 M 124.29 108 m -1, 0 a 1,1 0 1,0 2,0 a 1,1 0 1,0 -2,0 M 124.29 108 m -0.5, 0 a 0.5,0.5 0 1,0 1,0 a 0.5,0.5 0 1,0 -1,0  M124.29 108 L124.29 108 117.29 102 124.29 96 M 124.29 96 m -1, 0 a 1,1 0 1,0 2,0 a 1,1 0 1,0 -2,0 M 124.29 96 m -0.5, 0 a 0.5,0.5 0 1,0 1,0 a 0.5,0.5 0 1,0 -1,0  M112.29 102 C 62.290000000000006 102, 41.72200000000001 322.71, 146.57 322.71 M 158.57 322.71 m -1, 0 a 1,1 0 1,0 2,0 a 1,1 0 1,0 -2,0 M 158.57 322.71 m -0.5, 0 a 0.5,0.5 0 1,0 1,0 a 0.5,0.5 0 1,0 -1,0  M158.57 322.71 L158.57 322.71 146.57 322.71 M152.57 328.71 L152.57 328.71 152.57 316.71" id="h1607168654" class="r"></path><path d="M 560 444.14 m -1, 0 a 1,1 0 1,0 2,0 a 1,1 0 1,0 -2,0 M 560 444.14 m -0.5, 0 a 0.5,0.5 0 1,0 1,0 a 0.5,0.5 0 1,0 -1,0  M560 444.14 L560 444.14 548 444.14 M 560 450.14 m -1, 0 a 1,1 0 1,0 2,0 a 1,1 0 1,0 -2,0 M 560 450.14 m -0.5, 0 a 0.5,0.5 0 1,0 1,0 a 0.5,0.5 0 1,0 -1,0  M560 450.14 L560 450.14 553 444.14 560 438.14 M 560 438.14 m -1, 0 a 1,1 0 1,0 2,0 a 1,1 0 1,0 -2,0 M 560 438.14 m -0.5, 0 a 0.5,0.5 0 1,0 1,0 a 0.5,0.5 0 1,0 -1,0  M548 444.14 Q 496.33 444.14, 444.65 383.42 T 341.3 322.71 M 329.3 322.71 m -1, 0 a 1,1 0 1,0 2,0 a 1,1 0 1,0 -2,0 M 329.3 322.71 m -0.5, 0 a 0.5,0.5 0 1,0 1,0 a 0.5,0.5 0 1,0 -1,0  M329.3 322.71 L329.3 322.71 341.3 322.71 M335.3 328.71 L335.3 328.71 335.3 316.71" id="h1397587031" class="r"></path><path d="M 560 469.14 m -1, 0 a 1,1 0 1,0 2,0 a 1,1 0 1,0 -2,0 M 560 469.14 m -0.5, 0 a 0.5,0.5 0 1,0 1,0 a 0.5,0.5 0 1,0 -1,0  M560 469.14 L560 469.14 548 469.14 M 560 475.14 m -1, 0 a 1,1 0 1,0 2,0 a 1,1 0 1,0 -2,0 M 560 475.14 m -0.5, 0 a 0.5,0.5 0 1,0 1,0 a 0.5,0.5 0 1,0 -1,0  M560 475.14 L560 475.14 553 469.14 560 463.14 M 560 463.14 m -1, 0 a 1,1 0 1,0 2,0 a 1,1 0 1,0 -2,0 M 560 463.14 m -0.5, 0 a 0.5,0.5 0 1,0 1,0 a 0.5,0.5 0 1,0 -1,0  M548 469.14 C 498 469.14, 482.57399999999996 92.71000000000001, 573.71 92.71000000000001 M 585.71 92.71000000000001 m -1, 0 a 1,1 0 1,0 2,0 a 1,1 0 1,0 -2,0 M 585.71 92.71000000000001 m -0.5, 0 a 0.5,0.5 0 1,0 1,0 a 0.5,0.5 0 1,0 -1,0  M585.71 92.71000000000001 L585.71 92.71000000000001 573.71 92.71000000000001 M579.71 98.71000000000001 L579.71 98.71000000000001 579.71 86.71000000000001" id="h2286254435" class="r"></path><path d="M 991.43 131.29000000000002 m -1, 0 a 1,1 0 1,0 2,0 a 1,1 0 1,0 -2,0 M 991.43 131.29000000000002 m -0.5, 0 a 0.5,0.5 0 1,0 1,0 a 0.5,0.5 0 1,0 -1,0  M991.43 131.29000000000002 L991.43 131.29000000000002 979.43 131.29000000000002 M985.43 137.29000000000002 L985.43 137.29000000000002 985.43 125.29000000000002 M979.43 131.29000000000002 Q 934.19 131.29000000000002, 888.95 112 T 798.46 92.71000000000001 M 786.46 92.71000000000001 m -1, 0 a 1,1 0 1,0 2,0 a 1,1 0 1,0 -2,0 M 786.46 92.71000000000001 m -0.5, 0 a 0.5,0.5 0 1,0 1,0 a 0.5,0.5 0 1,0 -1,0  M786.46 92.71000000000001 L786.46 92.71000000000001 798.46 92.71000000000001 M792.46 98.71000000000001 L792.46 98.71000000000001 792.46 86.71000000000001" id="h3177548053" class="r"></path></g><g class="hrs"></g><g class="ts"><svg width="170.73" height="100" x="158.57" y="265.71" id="h475896179" class="t"><rect height="40" width="170.73" class="th"></rect><text x="13" y="25" class="tht">departments</text><rect height="60" width="170.73" class="t-bg"></rect><text x="13" y="61" class="tf pk">dept_no<tspan x="157.73" class="ty">varchar(10)</tspan></text><path d="M7,14A2,2 0 0,1 5,12A2,2 0 0,1 7,10A2,2 0 0,1 9,12A2,2 0 0,1 7,14M12.65,10C11.83,7.67 9.61,6 7, 6A6, 6 0 0, 0 1, 12A6, 6 0 0, 0 7, 18C9.61, 18 11.83, 16.33 12.65, 14H17V18H21V14H23V10H12.65Z" class="i pk" transform="translate(76.37648437499999, 48) scale(0.65)"></path><text x="13" y="86" class="tf">dept_name<tspan x="157.73" class="ty">varchar(30)</tspan></text></svg><svg width="162.04" height="100" x="809.29" y="401.44" id="h311790747" class="t"><rect height="40" width="162.04" class="th"></rect><text x="13" y="25" class="tht">titles</text><rect height="60" width="162.04" class="t-bg"></rect><text x="13" y="61" class="tf pk">title_id<tspan x="149.04" class="ty">varchar(10)</tspan></text><path d="M7,14A2,2 0 0,1 5,12A2,2 0 0,1 7,10A2,2 0 0,1 9,12A2,2 0 0,1 7,14M12.65,10C11.83,7.67 9.61,6 7, 6A6, 6 0 0, 0 1, 12A6, 6 0 0, 0 7, 18C9.61, 18 11.83, 16.33 12.65, 14H17V18H21V14H23V10H12.65Z" class="i pk" transform="translate(67.68648437499999, 48) scale(0.65)"></path><text x="13" y="86" class="tf">title<tspan x="149.04" class="ty">varchar(30)</tspan></text></svg><svg width="200.75" height="225" x="585.71" y="35.71" id="h1639608377" class="t"><rect height="40" width="200.75" class="th"></rect><text x="13" y="25" class="tht">employees</text><rect height="185" width="200.75" class="t-bg"></rect><text x="13" y="61" class="tf pk">emp_no<tspan x="187.75" class="ty">int</tspan></text><path d="M7,14A2,2 0 0,1 5,12A2,2 0 0,1 7,10A2,2 0 0,1 9,12A2,2 0 0,1 7,14M12.65,10C11.83,7.67 9.61,6 7, 6A6, 6 0 0, 0 1, 12A6, 6 0 0, 0 7, 18C9.61, 18 11.83, 16.33 12.65, 14H17V18H21V14H23V10H12.65Z" class="i pk" transform="translate(155.076171875, 48) scale(0.65)"></path><text x="13" y="86" class="tf fk">employee_title_id<tspan x="187.75" class="ty">varchar(30)</tspan></text><text x="13" y="111" class="tf">birth_date<tspan x="187.75" class="ty">date</tspan></text><text x="13" y="136" class="tf">first_name<tspan x="187.75" class="ty">varchar(20)</tspan></text><text x="13" y="161" class="tf">last_name<tspan x="187.75" class="ty">varchar(20)</tspan></text><text x="13" y="186" class="tf">sex<tspan x="187.75" class="ty">varchar(5)</tspan></text><text x="13" y="211" class="tf">hire_date<tspan x="187.75" class="ty">date</tspan></text></svg><svg width="150.73" height="100" x="124.29" y="20" id="h1090417462" class="t"><rect height="40" width="150.73" class="th"></rect><text x="13" y="25" class="tht">dept_emp</text><rect height="60" width="150.73" class="t-bg"></rect><text x="13" y="61" class="tf fk">emp_no<tspan x="137.73" class="ty">int</tspan></text><text x="13" y="86" class="tf fk">dept_no<tspan x="137.73" class="ty">varchar(10)</tspan></text></svg><svg width="150.73" height="100" x="560" y="387.14" id="h1676682957" class="t"><rect height="40" width="150.73" class="th"></rect><text x="13" y="25" class="tht">dept_manager</text><rect height="60" width="150.73" class="t-bg"></rect><text x="13" y="61" class="tf fk">dept_no<tspan x="137.73" class="ty">varchar(10)</tspan></text><text x="13" y="86" class="tf fk">emp_no<tspan x="137.73" class="ty">int</tspan></text></svg><svg width="102.04" height="100" x="991.43" y="74.29" id="h2472833127" class="t"><rect height="40" width="102.04" class="th"></rect><text x="13" y="25" class="tht">salaries</text><rect height="60" width="102.04" class="t-bg"></rect><text x="13" y="61" class="tf fk">emp_no<tspan x="89.04" class="ty">int</tspan></text><text x="13" y="86" class="tf">salaries<tspan x="89.04" class="ty">int</tspan></text></svg></g></g><text class="qdbd-link" x="10" y="20">www.quickdatabasediagrams.com</text></svg>